<svg id="Calque_2" viewBox="0 0 1690.377 1690.377" xmlns="http://www.w3.org/2000/svg"><defs><style>.cls-1{fill:#040501;}.cls-2{fill:#fff;}.cls-3{fill:#f07e2a;}</style></defs><circle class="cls-1" cx="845.189" cy="845.188" r="845.188" transform="translate(-350.088 845.188) rotate(-45)"></circle><g id="Watch"><path class="cls-3" d="m1188.199,1056.907h30.136c4.104,0,7.431,3.327,7.431,7.431v55.523c8.869-5.69,10.361-7.495,19.337-10.341,8.982-2.823,18.077-4.263,27.293-4.263,17.958,0,40.508,4.61,52.794,13.815,10.545,7.975,15.824,19.695,15.824,35.163v81.249c0,4.104-3.327,7.431-7.431,7.431h-29.904c-4.104,0-7.431-3.327-7.431-7.431v-51.369c0-15.527-1.011-26.037-2.979-31.533-2.028-5.516-5.419-9.625-10.232-12.317-4.827-2.728-10.791-4.093-17.878-4.093-9.175,0-17.127,2.266-23.669,6.785-6.622,4.512-11.183,10.664-13.716,18.485-1.343,4.017-2.008,13.238-2.008,27.611v46.431c0,4.104-3.327,7.431-7.431,7.431h-30.136c-4.104,0-7.431-3.327-7.431-7.431v-171.146c0-4.104,3.327-7.431,7.431-7.431Z"></path><path class="cls-3" d="m1128.899,1140.311l-23.066,9.43c-2.364.966-5.048.558-7.139-.907-5.951-4.17-11.834-7.159-17.661-8.971-6.914-2.131-15.039-3.207-24.327-3.207-16.947,0-30.643,3.764-41.082,11.257-10.478,7.513-15.724,17.104-15.724,28.824,0,11.376,5.047,20.675,15.119,27.883,10.073,7.224,23.317,10.815,39.679,10.815,18.119,0,32.658-4.103,43.609-12.353,2.353-1.773,5.39-2.248,8.014-.909l19.462,9.93c6.856,3.498,7.557,10.308,3.177,13.565-18.555,13.795-42.989,20.687-73.271,20.687-31.767,0-56.646-6.975-74.664-20.964-17.978-13.969-26.973-30.343-26.973-49.097,0-12.989,4.361-24.942,13.124-35.875,8.729-10.933,20.943-19.521,36.621-25.788,15.644-6.244,33.177-9.375,52.557-9.375,17.938,0,34.048,2.669,48.329,7.975,10.012,3.717,18.75,8.541,26.206,14.468,4.382,3.484,3.193,10.492-1.989,12.611Z"></path><path class="cls-3" d="m873.605,1059.216h30.583c4.104,0,7.431,3.327,7.431,7.431v42.069h19.609c4.104,0,7.431,3.327,7.431,7.431v14.074c0,4.104-3.327,7.431-7.431,7.431h-19.609v97.833c0,4.104-3.327,7.431-7.431,7.431h-30.583c-4.104,0-7.431-3.327-7.431-7.431v-97.833h-15.829c-4.104,0-7.431-3.327-7.431-7.431v-14.074c0-4.104,3.327-7.431,7.431-7.431h15.829v-42.069c0-4.104,3.327-7.431,7.431-7.431Z"></path><path class="cls-3" d="m776.771,1108.716h30.565c4.104,0,7.431,3.327,7.431,7.431v126.769h-45.427v-14.219c-8.826,6.244-17.725,10.763-26.608,13.527-8.906,2.748-18.546,4.132-28.928,4.132-23.337,0-43.498-6.726-60.526-20.157-17.024-13.452-25.537-30.149-25.537-50.133,0-20.731,8.221-37.702,24.719-50.939,16.462-13.261,36.487-19.869,60.017-19.869,10.81,0,20.999,1.535,30.507,4.555,9.524,3.053,18.29,7.608,26.355,13.717v-7.382c0-4.104,3.327-7.431,7.431-7.431Zm-56.058,27.631c-14.009,0-25.637,3.669-34.868,11.028-9.255,7.342-13.892,16.777-13.892,28.267,0,11.586,4.697,21.118,14.145,28.595,9.408,7.473,21.016,11.199,34.792,11.199,20.785,0,37.809-6.708,46.415-23.591,7.752-17.08,2.39-34.274-11.041-44.659-9.371-7.224-21.216-10.838-35.55-10.838Z"></path><path class="cls-3" d="m356.804,1108.716h27.905c2.864,0,5.474,1.646,6.707,4.231l34.409,72.129,37.1-72.321c1.272-2.48,3.825-4.039,6.612-4.039h18.083c2.794,0,5.353,1.568,6.621,4.058l36.383,71.42,34.364-71.275c1.239-2.57,3.84-4.204,6.693-4.204h28.12c5.503,0,9.096,5.772,6.668,10.71l-58.689,119.338c-1.25,2.542-3.836,4.152-6.668,4.152h-19.498c-2.802,0-5.365-1.576-6.63-4.075l-36.644-72.403-37.638,72.472c-1.278,2.461-3.821,4.006-6.594,4.006h-19.239c-2.844,0-5.438-1.623-6.682-4.18l-58.065-119.338c-2.402-4.936,1.193-10.682,6.682-10.682Z"></path></g><rect class="cls-2" height="18.425" id="LINE" rx="9.213" ry="9.213" width="991.631" x="349.365" y="1011.96"></rect><g id="ICE"><path class="cls-2" d="m1285.677,641.758c-37.235-38.055-84.244-56.543-143.682-56.543-55.987,0-101.247,18.488-138.35,56.543-37.134,38.04-55.186,84.529-55.186,142.113,0,56.208,18.107,101.684,55.351,139.029,37.223,37.345,84.101,55.492,143.361,55.492,37.639,0,70.604-6.751,97.958-20.095,20.478-9.979,39.114-24.289,55.345-42.533,3.912-4.396,5.531-10.373,4.347-16.131-1.175-5.76-5.008-10.627-10.334-13.133l-46.312-21.747c-2.521-1.193-5.219-1.765-7.908-1.765-4.249,0-8.467,1.456-11.872,4.264-23.316,19.266-50.879,29.043-81.919,29.043-29.275,0-53.715-7.954-72.617-23.632-18.905-15.681-30.664-37.088-34.993-63.623l-.043-.282h283.544c4.952,0,9.703-1.958,13.188-5.467,3.494-3.509,5.457-8.266,5.457-13.23-.229-61.962-18.321-110.476-55.336-148.305Zm-242.684,93.168c10.682-23.442,21.974-39.321,34.522-48.578,19.76-14.679,43.023-22.093,69.129-22.093,24.063,0,45.504,6.595,63.739,19.642,18.22,13.047,30.594,30.208,36.779,51.047l.095.315h-204.396l.132-.334Z"></path><path class="cls-2" d="m732.007,672.15c19.217,0,36.226,3.01,50.551,8.969,11.156,4.637,22.637,12.3,34.121,22.717,3.506,3.203,8.002,4.87,12.536,4.87,3.071,0,6.155-.762,8.972-2.313l46.587-25.626c4.947-2.717,8.4-7.547,9.373-13.117.973-5.565-.627-11.284-4.365-15.516-16.281-18.517-35.886-33.581-58.245-44.764-29.413-14.696-63.072-22.156-100.035-22.156-39.909,0-76.508,8.783-108.781,26.114-32.258,17.325-57.765,41.499-75.783,71.846-18.015,30.325-27.143,63.987-27.143,100.02,0,52.757,18.26,97.499,55.844,136.784,37.575,39.303,88.111,58.413,154.499,58.413,65.55,0,116.441-20.123,155.585-61.54,3.738-3.953,5.564-9.355,4.98-14.782-.572-5.408-3.502-10.315-7.996-13.402l-43.378-29.691c-3.185-2.178-6.871-3.258-10.523-3.258-4.65,0-9.278,1.729-12.857,5.14-22.304,21.221-51.934,31.983-88.074,31.983-33.907,0-61.656-10.19-82.494-30.276-20.863-20.117-31.435-46.409-31.435-78.175,0-32.668,10.973-59.833,32.619-80.726,21.649-20.906,50.389-31.515,85.443-31.515Z"></path><path class="cls-2" d="m405.663,590.082c-26.513,0-46.902,21.495-46.902,48.008v316.16c0,10.297,8.345,18.645,18.639,18.645h56.186c10.297,0,18.636-8.348,18.636-18.645v-316.16c0-26.513-20.037-48.008-46.559-48.008Z"></path></g><path class="cls-3" d="m405.328,444.022c15.446,0,28.669,5.507,39.728,16.49,11.041,10.999,16.562,24.314,16.562,39.958,0,15.425-5.472,28.589-16.407,39.473-10.943,10.887-24.02,16.331-39.237,16.331-15.655,0-29.016-5.555-40.046-16.647-11.041-11.101-16.562-24.576-16.562-40.434,0-15.216,5.463-28.218,16.407-38.992,10.929-10.788,24.118-16.179,39.556-16.179Z" id="DOT"></path></svg>